<?xml version="1.0" encoding="iso-8859-1"?>
<!-- Uploaded to: SVG Repo, www.svgrepo.com, Generator: SVG Repo Mixer Tools -->
<!DOCTYPE svg PUBLIC "-//W3C//DTD SVG 1.1//EN" "http://www.w3.org/Graphics/SVG/1.1/DTD/svg11.dtd">
<svg fill="#000000" version="1.1" id="Capa_1" xmlns="http://www.w3.org/2000/svg" xmlns:xlink="http://www.w3.org/1999/xlink" 
	 width="800px" height="800px" viewBox="0 0 83.306 83.306"
	 xml:space="preserve">
<g>
	<g>
		<path d="M81.722,29.139c1.585-1.88,1.585-13.162-7.73-12.537c0.938-7.414-12.587-10.86-16.921-2.429
			c-6.373-1.747-13.828,7.119-8.814,14.38c-4.204,6.405-1.216,17.822,5.783,20.329c7,2.507,15.568,2.507,20.892-0.521
			C80.255,45.332,86.216,37.179,81.722,29.139z M74.603,18.627c2.404-0.908,3.859,1.291,4.988,4.27
			c1.125,2.97,1.499,5.584-0.905,6.497c-2.395,0.908-5.75-0.58-6.877-3.554C70.682,22.868,72.21,19.538,74.603,18.627z
			 M65.813,11.836c3.536,0,6.403,0.644,6.403,3.499c0,2.858-2.87,5.762-6.403,5.762c-3.54,0-6.409-2.904-6.409-5.762
			C59.404,12.48,62.273,11.836,65.813,11.836z M50.735,20.42c1.597-2.753,3.393-4.688,5.614-3.396
			c2.217,1.291,3.171,4.827,1.578,7.578c-1.604,2.746-5.15,3.663-7.367,2.375C48.336,25.685,49.135,23.169,50.735,20.42z
			 M50.375,40.17c-2.06-0.165-2.365-2.268-2.162-4.818c0.196-2.55,0.823-4.58,2.883-4.423c2.061,0.162,3.994,2.388,3.794,4.94
			C54.687,38.425,52.436,40.33,50.375,40.17z M58.3,37.234c-0.522,2.356-2.304,3.997-4.17,3.997c1.487-0.666,2.73-2.21,3.178-4.215
			c0.44-2.003-0.036-3.931-1.1-5.165C57.903,32.638,58.82,34.88,58.3,37.234z M59.854,27.665c-0.958,1.177-2.339,1.669-3.265,1.243
			c0.938-0.027,2.017-0.591,2.84-1.595c0.821-1.001,1.154-2.174,0.995-3.095C61.025,25.04,60.815,26.488,59.854,27.665z
			 M61.09,21.542c0.974,1.307,2.753,2.188,4.809,2.188c2.05,0,3.825-0.878,4.801-2.188c-0.401,1.818-2.386,3.203-4.801,3.203
			C63.487,24.745,61.495,23.36,61.09,21.542z M70.214,25.502c-0.376,0.921-0.123,2.158,0.832,3.287
			c0.954,1.122,2.343,1.838,3.625,1.984c-1.348,0.319-3.152-0.36-4.274-1.681C69.281,27.768,69.24,26.264,70.214,25.502z
			 M71.095,37.959c-0.521-2.354,0.396-4.597,2.091-5.383c-1.064,1.231-1.537,3.159-1.099,5.162c0.444,2.002,1.689,3.544,3.17,4.215
			C73.4,41.958,71.616,40.313,71.095,37.959z M81.213,36.744c-0.183,2.552-0.796,4.585-2.86,4.432
			c-2.062-0.151-3.996-2.373-3.816-4.925c0.189-2.553,2.437-4.469,4.499-4.318C81.09,32.092,81.404,34.189,81.213,36.744z"/>
		<path d="M26.235,37.531C21.902,29.1,8.375,32.546,9.314,39.96c-9.312-0.625-9.312,10.657-7.73,12.537
			C-2.909,60.538,3.05,68.69,8.375,71.719c5.324,3.027,13.892,3.027,20.891,0.521c6.996-2.508,9.984-13.924,5.784-20.329
			C40.062,44.65,32.609,35.783,26.235,37.531z M26.959,40.382c2.222-1.291,4.018,0.643,5.613,3.397
			c1.602,2.748,2.397,5.265,0.175,6.556c-2.217,1.288-5.768,0.374-7.367-2.375C23.787,45.208,24.742,41.673,26.959,40.382z
			 M17.495,35.195c3.54,0,6.408,0.643,6.408,3.499c0,2.858-2.868,5.762-6.408,5.762c-3.537,0-6.403-2.903-6.403-5.762
			C11.092,35.838,13.96,35.195,17.495,35.195z M3.717,46.255c1.127-2.979,2.581-5.178,4.987-4.27
			c2.394,0.912,3.925,4.242,2.795,7.212c-1.128,2.975-4.482,4.462-6.878,3.555C2.219,51.839,2.589,49.225,3.717,46.255z
			 M4.956,64.534c-2.066,0.15-2.677-1.882-2.862-4.432c-0.191-2.556,0.125-4.651,2.18-4.809c2.062-0.15,4.309,1.763,4.498,4.317
			C8.952,62.164,7.018,64.383,4.956,64.534z M12.213,61.318c-0.521,2.352-2.303,3.998-4.163,3.996
			c1.484-0.671,2.726-2.213,3.17-4.216c0.439-2.005-0.033-3.93-1.098-5.162C11.816,56.721,12.732,58.965,12.213,61.318z
			 M12.911,52.451c-1.121,1.321-2.927,2.001-4.273,1.682c1.282-0.144,2.671-0.86,3.625-1.984c0.956-1.127,1.21-2.366,0.832-3.287
			C14.067,49.623,14.028,51.125,12.911,52.451z M17.411,48.103c-2.414,0-4.401-1.385-4.803-3.202
			c0.976,1.307,2.752,2.188,4.803,2.188c2.055,0,3.833-0.878,4.807-2.188C21.813,46.718,19.82,48.103,17.411,48.103z M22.887,47.577
			c-0.161,0.924,0.173,2.094,0.994,3.095c0.825,1.004,1.901,1.567,2.84,1.595c-0.925,0.427-2.305-0.066-3.263-1.243
			C22.493,49.846,22.283,48.398,22.887,47.577z M25.009,60.592c-0.521-2.354,0.397-4.599,2.09-5.384
			c-1.063,1.234-1.54,3.162-1.098,5.165c0.447,2.005,1.691,3.551,3.178,4.215C27.312,64.591,25.53,62.949,25.009,60.592z
			 M35.092,58.71c0.203,2.55-0.103,4.653-2.163,4.817c-2.059,0.159-4.31-1.745-4.515-4.3c-0.201-2.55,1.733-4.779,3.793-4.94
			C34.272,54.129,34.896,56.158,35.092,58.71z"/>
	</g>
</g>
</svg>